<?xml version="1.0" standalone="no"?>
<!DOCTYPE svg PUBLIC "-//W3C//DTD SVG 20010904//EN"
 "http://www.w3.org/TR/2001/REC-SVG-20010904/DTD/svg10.dtd">
<svg version="1.0" xmlns="http://www.w3.org/2000/svg"
 width="100.000000pt" height="100.000000pt" viewBox="0 0 100.000000 100.000000"
 preserveAspectRatio="xMidYMid meet">

<g transform="translate(0.000000,100.000000) scale(0.100000,-0.100000)"
fill="#000000" stroke="none">
<path d="M228 933 c-9 -2 -21 -18 -27 -34 -9 -27 -14 -30 -47 -27 -34 3 -38 0
-63 -44 -25 -44 -25 -47 -8 -65 22 -25 22 -41 0 -65 -17 -18 -16 -22 7 -66 24
-44 27 -47 63 -45 33 2 39 -1 48 -25 13 -34 26 -42 67 -42 43 0 72 16 72 39 0
23 23 33 55 25 19 -5 28 2 49 32 30 44 33 66 11 84 -19 16 -19 44 1 61 18 15
12 50 -17 91 -16 22 -27 27 -57 25 -32 -2 -37 1 -40 21 -5 34 -58 50 -114 35z
m84 -160 c38 -34 11 -103 -40 -103 -54 0 -81 62 -45 102 20 22 61 23 85 1z"/>
<path d="M447 906 c17 -22 37 -35 53 -35 34 -1 117 -41 158 -76 43 -36 82
-104 103 -182 12 -43 31 -80 58 -112 22 -26 41 -53 43 -60 2 -7 -17 -20 -42
-30 l-45 -17 -3 -81 c-2 -48 -8 -85 -15 -91 -7 -5 -42 -19 -80 -32 -54 -17
-70 -28 -83 -52 -12 -24 -13 -36 -5 -54 14 -33 40 -30 54 5 8 23 22 32 78 50
91 29 109 52 109 141 l0 67 45 18 c81 30 83 59 12 151 -35 45 -58 86 -66 118
-28 112 -104 212 -198 259 -49 25 -133 47 -179 47 l-26 0 29 -34z"/>
<path d="M64 517 c9 -93 37 -162 95 -234 65 -81 71 -93 71 -151 0 -57 19 -83
45 -62 20 16 20 109 0 156 -8 19 -35 59 -60 87 -45 51 -85 136 -85 180 0 13
-15 38 -36 58 l-37 34 7 -68z"/>
</g>
</svg>
