<?xml version="1.0" standalone="no"?>
<!DOCTYPE svg PUBLIC "-//W3C//DTD SVG 20010904//EN"
 "http://www.w3.org/TR/2001/REC-SVG-20010904/DTD/svg10.dtd">
<svg version="1.0" xmlns="http://www.w3.org/2000/svg"
 width="100.000000pt" height="100.000000pt" viewBox="0 0 100.000000 100.000000"
 preserveAspectRatio="xMidYMid meet">

<g transform="translate(0.000000,100.000000) scale(0.100000,-0.100000)"
fill="#000000" stroke="none">
<path d="M508 933 c-10 -2 -18 -12 -18 -22 0 -26 -20 -40 -50 -34 -22 4 -31
-1 -47 -24 -30 -42 -36 -68 -18 -83 19 -16 19 -39 -1 -61 -13 -15 -13 -21 -1
-50 18 -44 42 -63 69 -56 26 7 48 -8 48 -34 0 -13 10 -20 35 -25 51 -9 84 2
91 31 6 26 11 28 55 25 45 -2 93 99 54 114 -8 3 -15 12 -15 20 0 8 7 21 15 30
21 20 19 44 -7 83 -19 27 -28 33 -48 29 -31 -6 -45 2 -54 30 -9 29 -56 41
-108 27z m80 -155 c15 -15 15 -61 0 -76 -28 -28 -88 -2 -88 38 0 40 60 66 88
38z"/>
<path d="M752 479 l-82 -61 -35 31 c-34 29 -40 31 -118 31 -45 0 -116 5 -159
12 -99 15 -151 1 -216 -57 -61 -55 -109 -139 -91 -161 19 -23 35 -14 76 45 21
30 55 68 76 85 42 34 33 33 237 21 153 -8 160 -10 160 -40 0 -29 -14 -34 -120
-37 -73 -3 -75 -4 -75 -28 0 -25 1 -25 92 -28 59 -2 101 2 115 9 13 7 73 50
134 96 61 45 116 83 122 83 6 0 16 -9 22 -20 9 -17 -2 -30 -90 -106 -156 -136
-197 -164 -237 -164 -20 0 -86 5 -147 12 -101 10 -115 9 -148 -6 -62 -30 -101
-115 -60 -131 11 -4 22 1 32 15 51 71 36 68 245 56 l130 -8 45 30 c83 57 281
233 291 259 22 59 -22 123 -86 123 -23 0 -53 -16 -113 -61z"/>
</g>
</svg>
