<?xml version="1.0" standalone="no"?>
<!DOCTYPE svg PUBLIC "-//W3C//DTD SVG 20010904//EN"
 "http://www.w3.org/TR/2001/REC-SVG-20010904/DTD/svg10.dtd">
<svg version="1.0" xmlns="http://www.w3.org/2000/svg"
 width="100.000000pt" height="100.000000pt" viewBox="0 0 100.000000 100.000000"
 preserveAspectRatio="xMidYMid meet">

<g transform="translate(0.000000,100.000000) scale(0.100000,-0.100000)"
fill="#000000" stroke="none">
<path d="M448 944 c-36 -19 -48 -43 -48 -94 0 -30 6 -47 24 -65 67 -67 176
-27 176 65 0 52 -13 76 -50 95 -36 19 -67 19 -102 -1z m76 -57 c38 -27 -2 -95
-41 -71 -25 16 -29 55 -7 71 10 7 21 13 24 13 3 0 14 -6 24 -13z"/>
<path d="M374 700 c-32 -13 -49 -63 -34 -100 21 -51 73 -75 160 -75 87 0 139
24 160 75 16 38 -2 88 -37 101 -30 11 -220 11 -249 -1z m226 -70 c0 -28 -36
-43 -100 -43 -64 0 -100 15 -100 43 0 19 7 20 100 20 93 0 100 -1 100 -20z"/>
<path d="M815 521 c-16 -10 -57 -39 -89 -62 l-59 -44 -32 32 c-32 32 -36 33
-116 33 -46 0 -118 5 -161 12 -95 14 -149 1 -209 -50 -58 -49 -115 -140 -102
-161 18 -28 41 -17 80 38 21 30 55 68 76 85 42 34 33 33 237 21 153 -8 160
-10 160 -40 0 -29 -14 -34 -120 -37 -73 -3 -75 -4 -75 -28 0 -24 2 -25 85 -28
47 -2 95 -1 106 2 12 3 76 46 143 95 68 50 128 88 136 85 17 -7 25 -27 17 -41
-17 -25 -278 -234 -300 -240 -13 -3 -84 0 -156 7 -121 12 -135 11 -169 -5 -61
-29 -100 -114 -59 -130 11 -4 22 1 32 15 51 71 41 69 231 55 64 -4 128 -5 143
-1 54 13 330 250 340 293 10 36 -11 81 -45 98 -37 20 -58 19 -94 -4z"/>
</g>
</svg>
