<?xml version="1.0" standalone="no"?>
<!DOCTYPE svg PUBLIC "-//W3C//DTD SVG 20010904//EN"
 "http://www.w3.org/TR/2001/REC-SVG-20010904/DTD/svg10.dtd">
<svg version="1.0" xmlns="http://www.w3.org/2000/svg"
 width="100.000000pt" height="100.000000pt" viewBox="0 0 100.000000 100.000000"
 preserveAspectRatio="xMidYMid meet">

<g transform="translate(0.000000,100.000000) scale(0.100000,-0.100000)"
fill="#000000" stroke="none">
<path d="M307 794 c-81 -64 -156 -131 -165 -148 -14 -26 -17 -62 -17 -241 0
-239 4 -256 72 -274 50 -14 556 -14 606 0 68 18 72 35 72 274 0 181 -2 214
-17 242 -10 18 -83 83 -165 147 -200 157 -186 157 -386 0z m349 -51 c74 -58
139 -114 145 -124 5 -11 8 -103 7 -221 l-3 -203 -305 0 -305 0 -3 206 c-2 185
-1 209 15 228 37 44 268 220 291 220 15 1 71 -36 158 -106z"/>
<path d="M482 698 c-7 -7 -12 -20 -12 -29 0 -9 -14 -22 -30 -29 -56 -23 -75
-77 -48 -135 16 -35 57 -55 111 -55 51 0 72 -18 63 -54 -10 -39 -94 -46 -147
-13 -21 13 -49 3 -49 -18 0 -17 56 -55 81 -55 10 0 19 -11 23 -30 4 -22 11
-30 26 -30 15 0 22 8 27 30 3 18 12 30 22 30 9 0 26 8 37 18 76 61 42 167 -58
178 -87 10 -90 12 -86 47 3 31 5 32 52 35 27 2 54 -2 59 -7 6 -6 21 -11 34
-11 18 0 23 6 23 24 0 19 -9 29 -40 43 -22 10 -40 25 -40 34 0 15 -18 39 -30
39 -3 0 -11 -5 -18 -12z"/>
</g>
</svg>
