<?xml version="1.0" standalone="no"?>
<!DOCTYPE svg PUBLIC "-//W3C//DTD SVG 20010904//EN"
 "http://www.w3.org/TR/2001/REC-SVG-20010904/DTD/svg10.dtd">
<svg version="1.0" xmlns="http://www.w3.org/2000/svg"
 width="100.000000pt" height="100.000000pt" viewBox="0 0 100.000000 100.000000"
 preserveAspectRatio="xMidYMid meet">

<g transform="translate(0.000000,100.000000) scale(0.100000,-0.100000)"
fill="#000000" stroke="none">
<path d="M420 907 c-80 -18 -146 -60 -181 -115 -38 -60 -49 -101 -49 -188 0
-58 -4 -74 -20 -89 -40 -36 -15 -133 39 -150 11 -3 22 -18 26 -33 12 -49 56
-126 93 -165 65 -68 165 -105 192 -72 20 24 1 49 -42 56 -81 13 -149 87 -184
200 -14 46 -23 59 -48 70 -61 27 -41 79 29 79 39 0 43 -2 48 -30 14 -69 93
-94 142 -45 14 13 25 31 25 40 0 8 9 15 20 15 11 0 20 -7 20 -15 0 -9 11 -27
25 -40 49 -49 128 -24 142 45 4 24 11 30 30 30 l25 0 -4 -90 c-4 -102 -18
-126 -80 -137 -28 -4 -43 -1 -64 16 -35 28 -75 27 -102 -2 -64 -68 26 -155
101 -97 14 11 39 20 56 20 66 0 131 51 147 114 4 17 18 32 39 40 59 25 71 122
23 173 -12 13 -29 23 -39 23 -22 0 -32 76 -12 105 43 64 -41 178 -166 225 -65
25 -163 32 -231 17z m236 -85 c38 -19 114 -95 114 -113 0 -13 -109 -22 -192
-16 -59 4 -93 12 -130 31 -27 14 -53 26 -57 26 -16 0 -81 -90 -75 -104 9 -22
44 -20 70 5 21 20 23 20 60 3 27 -12 77 -18 164 -22 129 -5 140 -8 140 -49 0
-22 -3 -23 -100 -23 -62 0 -108 -5 -120 -12 -16 -10 -24 -10 -40 0 -13 8 -60
12 -130 12 l-110 0 0 48 c0 105 38 173 120 215 51 27 61 28 150 25 72 -3 105
-9 136 -26z m-226 -337 c0 -21 -30 -31 -41 -14 -14 23 -11 29 16 29 16 0 25
-6 25 -15z m200 -6 c0 -14 -5 -19 -17 -17 -26 5 -29 38 -4 38 15 0 21 -6 21
-21z"/>
</g>
</svg>
